<svg width="17" height="17" viewBox="0 0 17 17" fill="none" xmlns="http://www.w3.org/2000/svg">
<g clip-path="url(#clip0_9_172)">
<path fill-rule="evenodd" clip-rule="evenodd" d="M9.83254 11.7597C11.4889 11.5641 13.2505 10.9618 13.2505 8.10096C13.2505 7.28782 12.9642 6.62515 12.4978 6.11313C12.5731 5.91756 12.8137 5.17965 12.407 4.1559C12.407 4.1559 11.8048 3.96007 10.3897 4.90858C9.78738 4.74313 9.12495 4.63755 8.50764 4.63755C7.87502 4.63755 7.21235 4.74313 6.62512 4.90858C5.19466 3.96007 4.59242 4.1559 4.59242 4.1559C4.18598 5.17965 4.42697 5.91756 4.50218 6.11313C4.03531 6.62512 3.74923 7.28782 3.74923 8.10096C3.74923 10.9618 5.51089 11.5641 7.16723 11.7597C6.95659 11.9407 6.76079 12.2867 6.68555 12.7686C6.2638 12.9492 5.16458 13.2957 4.50218 12.1513C4.50218 12.1513 4.11055 11.4438 3.37287 11.3986C3.37287 11.3986 2.63497 11.3836 3.31268 11.8499C3.31268 11.8499 3.80939 12.0761 4.14086 12.9341C4.14086 12.9341 4.59242 14.3648 6.67024 13.9129V15.1927C6.67024 15.3888 6.51983 15.6144 6.14347 15.5543C3.19211 14.5754 1.06914 11.7747 1.06914 8.49236C1.06914 4.38158 4.39663 1.05413 8.50764 1.05413C12.6031 1.05413 15.9459 4.38162 15.9309 8.49236C15.9309 11.7747 13.8077 14.5604 10.8565 15.5543C10.4799 15.6295 10.3295 15.4039 10.3295 15.1927V13.1302C10.3295 12.4371 10.1033 11.9858 9.83254 11.7597ZM17 8.50764C17 3.80939 13.1904 0 8.50764 0C3.80939 0 0 3.80939 0 8.50764C0 13.1904 3.80939 17 8.50764 17C13.1904 17 17 13.1904 17 8.50764Z" fill="#A5A5A5"/>
</g>
<defs>
<clipPath id="clip0_9_172">
<rect width="17" height="17" fill="white"/>
</clipPath>
</defs>
</svg>
