<svg width="22" height="22" viewBox="0 0 22 22" fill="none" xmlns="http://www.w3.org/2000/svg">
<path d="M20.6311 5.66307V5.20356C20.6311 4.33178 19.9178 3.61847 19.046 3.61847L19.0455 3.6189L19.0446 3.61959L19.046 3.61847H2.86979L2.87604 3.62355L2.86979 3.6189C1.99802 3.6189 1.28467 4.33221 1.28467 5.20402V16.0323C1.28467 16.904 1.99798 17.6173 2.86979 17.6173H3.43407H18.4336C20.0964 17.598 20.5959 17.1861 20.6336 16.0335L20.6311 5.66307ZM17.865 4.00648L10.9322 9.11311L4.04456 4.00648H17.865ZM3.82608 7.97435L10.2479 12.3978L10.2543 12.4023L3.82239 16.8747L3.82608 7.97435ZM3.99206 17.2293L10.594 12.6386L10.7099 12.7192C10.7764 12.7655 10.854 12.7887 10.9315 12.7887C11.0084 12.7887 11.2719 12.6374 11.2719 12.6374L17.8757 17.2293H3.99206ZM18.0413 16.8719L11.6133 12.4023L15.1982 9.93293L18.0413 7.97459V16.8719Z" fill="#A5A5A5"/>
</svg>
